<mxfile host="Electron" modified="2024-03-23T19:08:18.836Z" agent="Mozilla/5.0 (Windows NT 10.0; Win64; x64) AppleWebKit/537.36 (KHTML, like Gecko) draw.io/23.1.5 Chrome/120.0.6099.109 Electron/28.1.0 Safari/537.36" etag="qjyA5t7YfstIYr_TEO_p" version="23.1.5" type="device">
  <diagram name="Página-1" id="KFGbmsQCDJnkx6Yqs7VR">
    <mxGraphModel dx="1420" dy="830" grid="1" gridSize="10" guides="1" tooltips="1" connect="1" arrows="1" fold="1" page="1" pageScale="1" pageWidth="827" pageHeight="1169" background="#CCE5FF" math="0" shadow="0">
      <root>
        <mxCell id="0" />
        <mxCell id="1" parent="0" />
        <mxCell id="n5UiYEWi1VrdAFmlyXay-1" value="&lt;p style=&quot;line-height: 70%;&quot;&gt;&lt;span style=&quot;font-size: 15px;&quot;&gt;&lt;font style=&quot;&quot; color=&quot;#000000&quot;&gt;&lt;b&gt;&lt;i&gt;12 Una granja vende la caja de 12 unidades a $1000 y cada huevo suelto a $120.&lt;br&gt;&lt;br&gt;Hacer un programa para ingresar la cantidad de huevos que compra un cliente y&lt;br&gt;&lt;br&gt;mostrar por pantalla el importe total a pagar.&lt;br&gt;&lt;br&gt;Recordatorio. Por cada 12 huevos se debe calcular una caja y el excedente se&lt;br&gt;&lt;br&gt;calcula como suelto.&lt;/i&gt;&lt;/b&gt;&lt;/font&gt;&lt;/span&gt;&lt;/p&gt;&lt;p style=&quot;line-height: 70%;&quot;&gt;&lt;span style=&quot;font-size: 15px;&quot;&gt;&lt;font style=&quot;&quot; color=&quot;#000000&quot;&gt;&lt;b&gt;&lt;i&gt;&lt;br&gt;&lt;br&gt;Ejemplo A. Si la cantidad ingresada son 15 huevos, el programa calculará 1 caja&lt;br&gt;&lt;br&gt;y 3 sueltos, es decir $1000 + $120 x 3 = $1360.&lt;br&gt;&lt;br&gt;Ejemplo B. Si la cantidad ingresada son 28 huevos el programa calculará 2&lt;br&gt;&lt;br&gt;cajas y 4 sueltos, es decir $1000 x 2 + $120 x 4 = $2480.&lt;br&gt;&lt;br&gt;Ejemplo C. Si la cantidad ingresada son 8 huevos, el programa calculará: 0 cajas&lt;br&gt;&lt;br&gt;y 8 sueltos, es decir $120 x 8 = $960.&lt;br&gt;&lt;br&gt;Ejemplo D. Si la cantidad ingresada son 200 huevos, el programa calculará: 16&lt;br&gt;&lt;br&gt;cajas y 8 sueltos, es decir $1000 x 16 + $120 x 8 = $16960.&lt;/i&gt;&lt;/b&gt;&lt;/font&gt;&lt;/span&gt;&lt;/p&gt;" style="text;whiteSpace=wrap;html=1;" vertex="1" parent="1">
          <mxGeometry x="80" width="690" height="300" as="geometry" />
        </mxCell>
        <mxCell id="n5UiYEWi1VrdAFmlyXay-18" value="" style="group" vertex="1" connectable="0" parent="1">
          <mxGeometry x="175" y="330" width="350" height="410" as="geometry" />
        </mxCell>
        <mxCell id="n5UiYEWi1VrdAFmlyXay-2" value="" style="strokeWidth=2;html=1;shape=mxgraph.flowchart.start_2;whiteSpace=wrap;rounded=0;labelBackgroundColor=none;strokeColor=#000000;align=center;verticalAlign=middle;fontFamily=Helvetica;fontSize=12;fontColor=default;fillColor=#d5e8d4;aspect=fixed;" vertex="1" parent="n5UiYEWi1VrdAFmlyXay-18">
          <mxGeometry x="155" width="40" height="40" as="geometry" />
        </mxCell>
        <mxCell id="n5UiYEWi1VrdAFmlyXay-4" value="" style="shape=trapezoid;perimeter=trapezoidPerimeter;whiteSpace=wrap;html=1;fixedSize=1;rounded=0;labelBackgroundColor=none;strokeColor=#121211;strokeWidth=2;align=center;verticalAlign=middle;fontFamily=Helvetica;fontSize=12;fontColor=default;fillColor=#d5e8d4;direction=west;container=1;aspect=fixed;" vertex="1" parent="n5UiYEWi1VrdAFmlyXay-18">
          <mxGeometry x="100" y="70" width="150" height="45" as="geometry">
            <mxRectangle x="-1020" y="-650" width="50" height="40" as="alternateBounds" />
          </mxGeometry>
        </mxCell>
        <mxCell id="n5UiYEWi1VrdAFmlyXay-10" value="&lt;font color=&quot;#000000&quot;&gt;&lt;span style=&quot;font-size: 16px;&quot;&gt;&lt;b&gt;huevos&lt;/b&gt;&lt;/span&gt;&lt;/font&gt;" style="text;strokeColor=none;align=center;fillColor=none;html=1;verticalAlign=middle;whiteSpace=wrap;rounded=0;aspect=fixed;" vertex="1" parent="n5UiYEWi1VrdAFmlyXay-4">
          <mxGeometry x="5" y="-5" width="140" height="50" as="geometry" />
        </mxCell>
        <mxCell id="n5UiYEWi1VrdAFmlyXay-15" value="" style="line;strokeWidth=2;direction=south;html=1;hachureGap=4;strokeColor=#000000;aspect=fixed;" vertex="1" parent="n5UiYEWi1VrdAFmlyXay-4">
          <mxGeometry x="70" y="-30" width="10" height="30" as="geometry" />
        </mxCell>
        <mxCell id="n5UiYEWi1VrdAFmlyXay-5" value="" style="shape=trapezoid;perimeter=trapezoidPerimeter;whiteSpace=wrap;html=1;fixedSize=1;rounded=0;labelBackgroundColor=none;strokeColor=#0F140C;strokeWidth=2;align=center;verticalAlign=middle;fontFamily=Helvetica;fontSize=12;fontColor=default;fillColor=#d5e8d4;aspect=fixed;" vertex="1" parent="n5UiYEWi1VrdAFmlyXay-18">
          <mxGeometry x="100" y="310" width="150" height="40" as="geometry" />
        </mxCell>
        <mxCell id="n5UiYEWi1VrdAFmlyXay-6" value="" style="rounded=0;whiteSpace=wrap;html=1;labelBackgroundColor=none;strokeColor=#0f100e;strokeWidth=2;align=center;verticalAlign=middle;fontFamily=Helvetica;fontSize=12;fontColor=default;fillColor=#d5e8d4;aspect=fixed;" vertex="1" parent="n5UiYEWi1VrdAFmlyXay-18">
          <mxGeometry y="150" width="350" height="130" as="geometry" />
        </mxCell>
        <mxCell id="n5UiYEWi1VrdAFmlyXay-7" value="&lt;b&gt;&lt;font style=&quot;font-size: 16px;&quot; color=&quot;#000000&quot;&gt;I&lt;/font&gt;&lt;/b&gt;" style="text;strokeColor=none;align=center;fillColor=none;html=1;verticalAlign=middle;whiteSpace=wrap;rounded=0;aspect=fixed;" vertex="1" parent="n5UiYEWi1VrdAFmlyXay-18">
          <mxGeometry x="145" y="5" width="60" height="30" as="geometry" />
        </mxCell>
        <mxCell id="n5UiYEWi1VrdAFmlyXay-9" value="" style="group;aspect=fixed;" vertex="1" connectable="0" parent="n5UiYEWi1VrdAFmlyXay-18">
          <mxGeometry x="145" y="370" width="60" height="40" as="geometry" />
        </mxCell>
        <mxCell id="n5UiYEWi1VrdAFmlyXay-3" value="" style="strokeWidth=2;html=1;shape=mxgraph.flowchart.start_2;whiteSpace=wrap;rounded=0;labelBackgroundColor=none;strokeColor=#000000;align=center;verticalAlign=middle;fontFamily=Helvetica;fontSize=12;fontColor=default;fillColor=#d5e8d4;aspect=fixed;" vertex="1" parent="n5UiYEWi1VrdAFmlyXay-9">
          <mxGeometry x="10" width="40" height="40" as="geometry" />
        </mxCell>
        <mxCell id="n5UiYEWi1VrdAFmlyXay-8" value="&lt;b&gt;&lt;font color=&quot;#000000&quot; style=&quot;font-size: 16px;&quot;&gt;F&lt;/font&gt;&lt;/b&gt;" style="text;strokeColor=none;align=center;fillColor=none;html=1;verticalAlign=middle;whiteSpace=wrap;rounded=0;aspect=fixed;" vertex="1" parent="n5UiYEWi1VrdAFmlyXay-9">
          <mxGeometry y="5" width="60" height="30" as="geometry" />
        </mxCell>
        <mxCell id="n5UiYEWi1VrdAFmlyXay-11" value="&lt;div style=&quot;text-align: left;&quot;&gt;&lt;b style=&quot;font-size: 15px; color: rgb(0, 0, 0); background-color: initial;&quot;&gt;docena = huevos / 12&lt;/b&gt;&lt;/div&gt;&lt;font color=&quot;#000000&quot;&gt;&lt;div style=&quot;text-align: left;&quot;&gt;&lt;b style=&quot;font-size: 15px; background-color: initial;&quot;&gt;huevos_unidad = huevos % 12&lt;/b&gt;&lt;/div&gt;&lt;span style=&quot;font-size: 15px;&quot;&gt;&lt;div style=&quot;text-align: left;&quot;&gt;&lt;b style=&quot;background-color: initial;&quot;&gt;docena_cajas = 1000 * docena&lt;/b&gt;&lt;/div&gt;&lt;b&gt;&lt;div style=&quot;text-align: left;&quot;&gt;&lt;b style=&quot;background-color: initial;&quot;&gt;huevos_sueltos = 120 * huevos_unidad&lt;/b&gt;&lt;/div&gt;&lt;div style=&quot;text-align: left;&quot;&gt;&lt;b style=&quot;background-color: initial;&quot;&gt;total = docena_cajas + huevos_sueltos&lt;/b&gt;&lt;/div&gt;&lt;/b&gt;&lt;/span&gt;&lt;/font&gt;" style="text;strokeColor=none;align=center;fillColor=none;html=1;verticalAlign=middle;whiteSpace=wrap;rounded=0;aspect=fixed;" vertex="1" parent="n5UiYEWi1VrdAFmlyXay-18">
          <mxGeometry x="10" y="155" width="330" height="120" as="geometry" />
        </mxCell>
        <mxCell id="n5UiYEWi1VrdAFmlyXay-12" value="&lt;b&gt;&lt;font color=&quot;#000000&quot; style=&quot;font-size: 16px;&quot;&gt;total&lt;/font&gt;&lt;/b&gt;" style="text;strokeColor=none;align=center;fillColor=none;html=1;verticalAlign=middle;whiteSpace=wrap;rounded=0;aspect=fixed;" vertex="1" parent="n5UiYEWi1VrdAFmlyXay-18">
          <mxGeometry x="130" y="315" width="90" height="30" as="geometry" />
        </mxCell>
        <mxCell id="n5UiYEWi1VrdAFmlyXay-13" value="" style="line;strokeWidth=2;direction=south;html=1;hachureGap=4;strokeColor=#000000;aspect=fixed;" vertex="1" parent="n5UiYEWi1VrdAFmlyXay-18">
          <mxGeometry x="170" y="280" width="10" height="30" as="geometry" />
        </mxCell>
        <mxCell id="n5UiYEWi1VrdAFmlyXay-14" value="" style="line;strokeWidth=2;direction=south;html=1;hachureGap=4;strokeColor=#000000;aspect=fixed;" vertex="1" parent="n5UiYEWi1VrdAFmlyXay-18">
          <mxGeometry x="170" y="350" width="10" height="20" as="geometry" />
        </mxCell>
        <mxCell id="n5UiYEWi1VrdAFmlyXay-16" value="" style="line;strokeWidth=2;direction=south;html=1;hachureGap=4;strokeColor=#000000;aspect=fixed;" vertex="1" parent="n5UiYEWi1VrdAFmlyXay-18">
          <mxGeometry x="170" y="115" width="10" height="35" as="geometry" />
        </mxCell>
      </root>
    </mxGraphModel>
  </diagram>
</mxfile>
